PathFileType	4	(X/Y/Z)	C:\Users\Biomechanik\SynologyDrive\AlexP\Athlete_03\Athlete_3_25_03_31\Squat_bar_03\marker_experimental.trc
DataRate	CameraRate	NumFrames	NumMarkers	Units	OrigDataRate	OrigDataStartFrame	OrigNumFrames
200.000000	200.000000	4	55	mm	200.000000	186	497
Frame#	Time	BL			BR			GLAB			RFHD			LFHD			C7			T6			SPINMOL			SPINM2			SPINM3			T12			BELTOL			BELT2			BELT3			SACROL			SACR2			SACR3			LTHOL			LTH2			LTH3			LSHAOL			LSHA2			LSHA3			LHEE			LTOE			LM5			RTHOL			RTH2			RTH3			RSHAOL			RSHA2			RSHA3			RHEE			RTOE			RM5			STRN			XIPH			LACR			LUAOL			LUA2			LUA3			LLAOL			LLA2			LLA3			LWRR			LWRU			RACR			RUAOL			RUA2			RUA3			RLAOL			RLA2			RLA3			RWRR			RWRU			
		X1	Y1	Z1	X2	Y2	Z2	X3	Y3	Z3	X4	Y4	Z4	X5	Y5	Z5	X6	Y6	Z6	X7	Y7	Z7	X8	Y8	Z8	X9	Y9	Z9	X10	Y10	Z10	X11	Y11	Z11	X12	Y12	Z12	X13	Y13	Z13	X14	Y14	Z14	X15	Y15	Z15	X16	Y16	Z16	X17	Y17	Z17	X18	Y18	Z18	X19	Y19	Z19	X20	Y20	Z20	X21	Y21	Z21	X22	Y22	Z22	X23	Y23	Z23	X24	Y24	Z24	X25	Y25	Z25	X26	Y26	Z26	X27	Y27	Z27	X28	Y28	Z28	X29	Y29	Z29	X30	Y30	Z30	X31	Y31	Z31	X32	Y32	Z32	X33	Y33	Z33	X34	Y34	Z34	X35	Y35	Z35	X36	Y36	Z36	X37	Y37	Z37	X38	Y38	Z38	X39	Y39	Z39	X40	Y40	Z40	X41	Y41	Z41	X42	Y42	Z42	X43	Y43	Z43	X44	Y44	Z44	X45	Y45	Z45	X46	Y46	Z46	X47	Y47	Z47	X48	Y48	Z48	X49	Y49	Z49	X50	Y50	Z50	X51	Y51	Z51	X52	Y52	Z52	X53	Y53	Z53	X54	Y54	Z54	X55	Y55	Z55	

187	0.93	233.3482971191406	947.3713378906251	-2234.545166015625	264.6459350585938	1004.925903320312	-214.6142120361328	548.1520385742188	1141.242919921875	-1184.847900390625	495.6606750488281	1165.6875	-1123.06689453125	506.4476013183594	1164.352172851562	-1258.761596679688	305.8599548339844	1035.782104492188	-1196.386962890625	177.6652069091797	924.0567016601564	-1201.897216796875	154.166748046875	901.3379516601564	-1221.654418945312	145.7155151367188	894.8762207031251	-1172.544067382812	116.4103927612305	848.2957153320314	-1209.243408203125	86.59886932373047	793.1137084960939	-1209.485107421875	51.26380920410156	779.6953125000001	-1224.408447265625	50.34402847290039	775.7841796875001	-1173.958251953125	15.15671443939209	728.2067871093751	-1203.873168945312	-39.08298873901367	628.0554809570314	-1231.962158203125	-38.76071166992188	623.4755249023439	-1180.412841796875	-53.41201782226562	566.4949340820314	-1210.508422851562	147.761474609375	459.0946044921876	-1507.584716796875	182.7400512695312	387.7979736328126	-1520.710815429688	197.3106994628906	433.7888488769532	-1536.373168945312	238.5328063964844	296.8760375976564	-1613.8154296875	179.2247924804688	257.2348022460939	-1578.005981445312	221.1358489990234	239.1999664306641	-1599.797729492188	113.8917694091797	71.98158264160165	-1464.523559570312	316.6323852539062	49.34257125854501	-1538.527465820312	238.6339416503906	25.81579971313487	-1619.977416992188	126.8075866699219	444.3642883300782	-915.2124633789062	180.2821044921875	481.7430725097657	-868.8412475585938	178.0260467529297	433.5773925781251	-880.9329223632812	213.6128845214844	311.2402343750001	-807.075927734375	213.8471221923828	232.3889770507813	-805.9049072265625	182.7359161376953	262.5415649414063	-830.737548828125	93.85939788818359	66.73896789550787	-967.6188354492188	281.0240783691406	46.43995285034185	-871.0816650390625	191.4605560302734	38.1267814636231	-798.85302734375	413.7294616699219	869.9779663085939	-1201.083251953125	366.1258239746094	727.5333862304689	-1196.742797851562	342.9664611816406	980.6544799804689	-1368.959350585938	215.4824371337891	878.0524902343751	-1460.5234375	161.3275756835938	842.7802124023439	-1448.52978515625	190.2615661621094	822.9045410156251	-1485.436157226562	153.2952575683594	759.2891845703126	-1552.461181640625	223.0190124511719	744.2559814453126	-1588.23486328125	200.5204925537109	788.6838378906251	-1579.19384765625	266.4093933105469	859.7313842773439	-1620.331665039062	284.6494750976562	885.4658203125001	-1547.821166992188	356.5730590820312	975.4754638671876	-1034.694213867188	234.5212860107422	876.8275146484376	-944.4736938476562	204.5613250732422	825.0340576171875	-916.1734008789062	181.7472686767578	841.0352783203126	-960.6430053710938	192.1795349121094	760.4163818359375	-832.6304321289062	202.6224060058594	838.8222045898438	-822.97119140625	235.0092620849609	800.6699829101562	-812.5554809570312	277.9211120605469	883.0615234375	-794.766845703125	307.2873229980469	909.3193969726562	-864.5928344726562	
188	0.9350000000000001	233.8256378173828	944.2197875976564	-2234.485595703125	264.8076782226562	1001.6865234375	-214.5331420898437	548.4805297851562	1137.887817382812	-1184.77880859375	495.9776000976562	1162.336791992188	-1123.005737304688	506.811767578125	1161.028686523438	-1258.698852539062	306.1526184082031	1032.54736328125	-1196.369506835938	177.9074554443359	920.9296264648439	-1201.874877929688	154.4061889648438	898.2590332031251	-1221.632568359375	145.9665679931641	891.7846069335939	-1172.523803710938	116.5886383056641	845.2601928710939	-1209.226806640625	86.73784637451172	790.1361694335939	-1209.463500976562	51.47185516357422	776.8596801757814	-1224.406860351562	50.55075073242188	772.9545288085939	-1173.968872070312	15.3848934173584	725.3865966796876	-1203.835693359375	-39.06886672973633	625.0946655273439	-1231.89306640625	-38.70899963378906	620.5274658203126	-1180.335083007812	-53.30879592895508	563.5223388671876	-1210.397216796875	147.8472900390625	457.3219299316407	-1507.586547851562	183.2299346923828	386.302947998047	-1521.209350585938	197.565185546875	432.4275207519532	-1536.68505859375	238.7667083740234	296.6835937500001	-1614.114135742188	179.4449005126953	257.1575622558595	-1578.21044921875	221.3017120361328	239.0463256835938	-1600.0244140625	113.9382019042969	72.02029418945321	-1464.505004882812	316.6619262695312	49.33955764770517	-1538.5302734375	238.6300354003906	25.8087100982667	-1619.97509765625	127.1090087890625	442.5327758789063	-914.9771728515625	180.4133911132812	480.3742370605469	-868.7597045898438	178.3660888671875	432.1425781250001	-880.6265869140625	214.0048828125	310.9834289550782	-806.7899780273438	214.0910797119141	232.130844116211	-805.6898803710938	183.0563049316406	262.3634338378907	-830.5208740234375	93.92812347412109	66.73406982421881	-967.637451171875	281.0393676757812	46.44072723388678	-871.100341796875	191.4615631103516	38.12411499023442	-798.8504028320312	413.9740600585938	866.6855468750001	-1201.084716796875	366.3381042480469	724.3353881835939	-1196.732788085938	343.26025390625	977.3663330078126	-1368.95947265625	215.7053527832031	874.8888549804689	-1460.506958007812	161.4892883300781	839.6671142578126	-1448.531982421875	190.3755645751953	819.7788085937501	-1485.459228515625	153.3944854736328	756.2038574218751	-1552.472900390625	223.1200103759766	741.0765380859376	-1588.225463867188	200.6671447753906	785.5269775390626	-1579.197021484375	266.6002807617188	856.5354614257814	-1620.32666015625	284.9308776855469	882.1906738281251	-1547.77587890625	356.8847351074219	972.1727294921876	-1034.67333984375	234.7516479492188	873.6393432617189	-944.4641723632812	204.7442474365234	821.86669921875	-916.1597900390625	181.9420318603516	837.8906860351564	-960.6300048828125	192.2744445800781	757.2665405273438	-832.6099243164062	202.7664184570312	835.67822265625	-822.9436645507812	235.1284484863281	797.4945678710938	-812.52294921875	278.0986938476562	879.839111328125	-794.7122192382812	307.4917602539062	906.0921630859375	-864.528076171875	
189	0.9400000000000001	234.2895355224609	941.0911254882814	-2234.431640625	264.9538879394531	998.4620971679688	-214.4571838378906	548.798828125	1134.555297851562	-1184.7177734375	496.2861328125	1159.01123046875	-1122.950805664062	507.165771484375	1157.726928710938	-1258.646362304688	306.43359375	1029.33056640625	-1196.3544921875	178.1435699462891	917.8164062500001	-1201.855590820312	154.6410217285156	895.1943969726564	-1221.613647460938	146.2136383056641	888.7059326171876	-1172.505126953125	116.7638092041016	842.2372436523439	-1209.214965820312	86.87747955322266	787.1729125976564	-1209.445922851562	51.67942428588867	774.0428466796876	-1224.407470703125	50.75423431396484	770.1397705078126	-1173.982788085938	15.60819625854492	722.5870361328126	-1203.805419921875	-39.04988479614258	622.1392822265626	-1231.821899414062	-38.66060638427734	617.5856323242189	-1180.256469726562	-53.19677352905273	560.5510864257814	-1210.287231445312	147.9617004394531	455.5476684570314	-1507.587890625	183.7288208007812	384.815887451172	-1521.692260742188	197.8276824951172	431.0701904296876	-1536.984741210938	239.004150390625	296.4951171875001	-1614.401123046875	179.6661224365234	257.0836791992189	-1578.40771484375	221.4703216552734	238.8963623046876	-1600.242797851562	113.9858474731445	72.0580596923829	-1464.486083984375	316.6920471191406	49.3355369567872	-1538.532104492188	238.6260223388672	25.80405807495127	-1619.970336914062	127.4148101806641	440.7130737304688	-914.745849609375	180.5457305908203	479.0116882324219	-868.6812133789062	178.7081604003906	430.7162780761719	-880.324462890625	214.3954467773438	310.7265319824219	-806.50537109375	214.3361358642578	231.8730621337891	-805.4776611328125	183.3759460449219	262.1852111816407	-830.3050537109375	93.99712371826172	66.72962951660162	-967.6580200195312	281.0553588867188	46.44112014770513	-871.1181030273438	191.4631042480469	38.12182235717778	-798.8482666015625	414.2148132324219	863.4157104492189	-1201.086181640625	366.5537414550781	721.1732177734376	-1196.720825195312	343.5431213378906	974.1011352539064	-1368.960327148438	215.92333984375	871.7410888671876	-1460.495849609375	161.6561737060547	836.5638427734376	-1448.5361328125	190.4988250732422	816.6644897460939	-1485.48388671875	153.5055236816406	753.1276245117189	-1552.489990234375	223.2312164306641	737.9160766601564	-1588.22314453125	200.8200531005859	782.3865356445314	-1579.205688476562	266.7916870117188	853.3613281250001	-1620.325927734375	285.2106323242188	878.9395751953126	-1547.734497070312	357.1825561523438	968.8950195312501	-1034.655517578125	234.9728088378906	870.4700317382814	-944.4605102539062	204.9192047119141	818.7156372070312	-916.1524658203125	182.1290130615234	834.7607421875001	-960.6237182617188	192.3651885986328	754.130859375	-832.5961303710938	202.9028015136719	832.55078125	-822.9222412109375	235.24365234375	794.33349609375	-812.4959106445312	278.267822265625	876.633544921875	-794.6630859375	307.6857299804688	902.8829345703125	-864.4675903320312	
190	0.9450000000000001	234.7396850585938	937.9851074218751	-2234.38330078125	265.0843811035156	995.2526245117188	-214.3871307373046	549.1066284179688	1131.24658203125	-1184.664916992188	496.5857849121094	1155.711547851562	-1122.90234375	507.5088806152344	1154.44775390625	-1258.604370117188	306.7033081054688	1026.131591796875	-1196.341674804688	178.3739471435547	914.7173461914064	-1201.839599609375	154.8715972900391	892.1444702148439	-1221.597900390625	146.4570770263672	885.6408691406251	-1172.488647460938	116.9359970092773	839.2272338867189	-1209.207885742188	87.01798248291016	784.2246093750001	-1209.432495117188	51.88638687133789	771.2460327148439	-1224.410278320312	50.95578002929688	767.3417358398439	-1173.998901367188	15.82511520385742	719.8099365234376	-1203.783325195312	-39.02729415893555	619.1876220703126	-1231.750610351562	-38.61814498901367	614.6488647460939	-1180.178955078125	-53.07729721069336	557.5794067382814	-1210.180786132812	148.1089782714844	453.7771301269532	-1507.600219726562	184.2368621826172	383.3375854492189	-1522.160278320312	198.0973510742188	429.7180175781251	-1537.272705078125	239.2448883056641	296.3103942871095	-1614.677124023438	179.8883209228516	257.0127258300782	-1578.598266601562	221.6416625976562	238.7498168945313	-1600.453369140625	114.0347671508789	72.09510040283212	-1464.46630859375	316.7227478027344	49.33059692382822	-1538.533081054688	238.6217651367188	25.80174827575694	-1619.963256835938	127.7259063720703	438.9046936035157	-914.5184936523438	180.6795196533203	477.6550598144532	-868.6061401367188	179.0525512695312	429.2980651855469	-880.0265502929688	214.7843780517578	310.4696350097657	-806.221923828125	214.5821685791016	231.6157379150391	-805.268310546875	183.6947021484375	262.0069885253907	-830.0899658203125	94.06578826904297	66.72657012939459	-967.680908203125	281.0718688964844	46.44097137451178	-871.1349487304688	191.4652252197266	38.1199340820313	-798.8468017578125	414.4520874023438	860.1682128906251	-1201.087158203125	366.7731628417969	718.0465698242189	-1196.70703125	343.81591796875	970.8588867187501	-1368.961303710938	216.1365203857422	868.6095581054689	-1460.490112304688	161.8287963867188	833.4714965820314	-1448.542358398438	190.6322021484375	813.5620727539064	-1485.509643554688	153.6280364990234	750.0609130859376	-1552.51220703125	223.3526306152344	734.7747802734376	-1588.227783203125	200.9796295166016	779.2624511718751	-1579.219604492188	266.9848937988281	850.2084960937501	-1620.328979492188	285.4874267578125	875.7136840820314	-1547.69775390625	357.4664306640625	965.6419067382814	-1034.640991210938	235.1842193603516	867.3192749023439	-944.4627685546875	205.0859375	815.580810546875	-916.1515502929688	182.3081665039062	831.6451416015626	-960.6242065429688	192.4517974853516	751.0092163085938	-832.5888671875	203.0315704345703	829.4391479492188	-822.906982421875	235.3549194335938	791.186767578125	-812.4741821289062	278.4286193847656	873.4450073242188	-794.6195068359375	307.8693542480469	899.6915283203125	-864.4118041992188	
